<svg xmlns="http://www.w3.org/2000/svg" width="34" height="43" viewBox="0 0 34 43"><defs><radialGradient id="a" cx="40.3%" cy="37.1%" r="237.535%" fx="40.3%" fy="37.1%" gradientTransform="matrix(.1935 0 0 1 .325 0)"><stop offset="0%" stop-opacity=".2"/><stop offset="100%" stop-opacity="0"/></radialGradient></defs><g transform="translate(2 2)" fill="none"><ellipse cx="15" cy="38.065" fill="url(#a)" rx="10" ry="1.935"/><path fill="#FFF" stroke="#8C8C8C" stroke-linejoin="round" d="M15 37.663c.917-1.555 2.479-3.59 4.778-6.325.266-.316.544-.645.841-.994.45-.528 2.936-3.42 3.561-4.162 1.199-1.42 1.962-2.381 2.403-3.05 2.063-3.13 2.917-5.538 2.917-8.482C29.5 6.855 22.986.5 15 .5S.5 6.855.5 14.65c0 2.927.838 5.281 2.92 8.485.44.679 1.206 1.65 2.4 3.067.665.788 3.259 3.805 3.56 4.158.29.34.56.657.817.964 2.321 2.753 3.885 4.784 4.803 6.34v-.001z"/></g></svg>